<svg id="svg" version="1.1" xmlns="http://www.w3.org/2000/svg" xmlns:xlink="http://www.w3.org/1999/xlink" width="400" height="266.6666666666667" viewBox="0, 0, 400,266.6666666666667"><g id="svgg"><path id="path0" d="M230.747 47.019 C 230.682 48.994,228.691 51.175,226.457 51.717 C 225.299 51.998,225.239 52.042,225.989 52.061 C 228.135 52.116,230.664 54.506,230.756 56.565 C 230.777 57.028,230.826 56.978,230.978 56.343 C 231.432 54.438,232.951 52.744,234.673 52.221 C 235.589 51.943,235.707 51.844,235.286 51.706 C 233.004 50.958,231.787 49.762,231.114 47.607 C 230.922 46.989,230.756 46.725,230.747 47.019 M194.922 48.609 C 167.338 50.259,147.385 75.399,151.839 102.892 L 152.118 104.611 153.077 104.435 C 153.605 104.337,154.293 104.120,154.607 103.951 C 155.096 103.688,155.235 103.727,155.581 104.220 C 156.401 105.390,156.532 104.443,156.110 100.421 C 153.872 79.117,168.512 58.800,190.017 53.364 C 202.256 50.271,217.147 53.017,227.278 60.237 C 229.195 61.603,228.728 60.847,226.412 58.836 C 219.794 53.087,210.711 49.435,201.198 48.694 C 198.123 48.455,197.613 48.448,194.922 48.609 M240.015 55.460 C 239.799 56.541,238.358 58.024,237.109 58.450 L 236.068 58.806 237.047 58.990 C 237.586 59.091,238.091 59.278,238.169 59.405 C 238.248 59.532,238.715 59.635,239.208 59.635 C 239.764 59.635,240.307 59.838,240.638 60.170 L 241.172 60.704 241.896 59.929 C 242.331 59.464,243.016 59.080,243.614 58.968 L 244.608 58.782 243.383 58.317 C 241.770 57.704,241.433 57.398,240.747 55.920 L 240.171 54.678 240.015 55.460 M189.583 65.234 L 189.583 69.010 185.156 69.010 L 180.729 69.010 180.729 71.484 L 180.729 73.958 182.764 73.958 C 184.665 73.958,184.845 74.007,185.516 74.707 L 186.233 75.456 186.164 81.413 C 186.126 84.689,186.118 88.454,186.146 89.779 L 186.198 92.188 186.719 91.667 C 187.497 90.889,187.821 90.997,190.031 92.776 C 191.146 93.673,192.494 94.731,193.027 95.128 L 193.996 95.849 194.069 92.000 L 194.141 88.151 198.681 88.104 L 203.221 88.056 203.823 87.062 C 204.154 86.515,204.425 85.810,204.426 85.495 C 204.428 84.698,205.909 83.619,206.959 83.649 C 207.896 83.675,208.661 83.148,211.133 80.768 L 212.760 79.202 212.759 77.426 C 212.755 72.503,210.074 69.750,204.594 69.043 L 203.330 68.880 203.370 65.169 L 203.410 61.458 200.793 61.458 L 198.177 61.458 198.177 65.234 L 198.177 69.010 196.354 69.010 L 194.531 69.010 194.531 65.234 L 194.531 61.458 192.057 61.458 L 189.583 61.458 189.583 65.234 M235.938 63.970 C 234.290 64.464,229.848 65.827,226.066 66.997 L 219.190 69.125 221.449 71.255 L 223.707 73.386 220.112 76.732 C 213.120 83.239,210.753 85.368,201.845 93.164 C 196.895 97.497,192.691 101.042,192.503 101.042 C 192.176 101.042,187.295 97.289,181.510 92.590 C 178.277 89.963,178.584 90.017,176.645 91.732 C 174.804 93.360,167.726 99.348,159.839 105.948 C 156.700 108.575,154.072 110.882,153.998 111.075 C 153.497 112.379,155.472 116.650,156.984 117.533 L 157.825 118.024 158.935 117.020 C 159.546 116.467,161.741 114.592,163.812 112.852 C 165.883 111.112,169.160 108.352,171.094 106.719 C 173.027 105.085,175.537 102.973,176.671 102.025 L 178.732 100.302 182.009 102.816 C 183.812 104.198,186.904 106.591,188.882 108.133 C 190.859 109.676,192.597 110.938,192.744 110.938 C 193.120 110.938,194.535 109.763,201.814 103.406 C 211.946 94.558,217.307 89.755,224.089 83.450 C 225.807 81.853,227.660 80.158,228.207 79.684 L 229.200 78.823 231.062 80.622 C 232.087 81.612,233.004 82.526,233.101 82.652 C 233.459 83.121,239.285 66.001,239.396 64.152 C 239.470 62.920,239.438 62.918,235.938 63.970 M165.559 74.023 C 161.439 80.058,158.575 89.754,158.612 97.545 C 158.635 102.362,158.691 102.549,159.848 101.603 L 160.711 100.897 160.401 98.040 C 159.513 89.883,161.597 80.862,166.008 73.763 C 166.972 72.213,166.680 72.382,165.559 74.023 M202.859 74.805 C 205.880 76.348,205.915 80.270,202.925 82.232 C 202.348 82.610,201.589 82.682,198.189 82.682 L 194.141 82.682 194.069 78.451 L 193.998 74.219 197.855 74.219 C 201.342 74.219,201.823 74.275,202.859 74.805 M237.756 80.487 C 237.533 81.313,237.526 81.997,237.731 83.059 C 237.884 83.854,238.143 85.911,238.305 87.630 C 238.610 90.855,238.799 91.732,238.806 89.952 C 238.809 89.251,238.883 89.047,239.043 89.300 C 240.235 91.183,240.251 86.230,239.067 81.723 C 238.438 79.328,238.143 79.049,237.756 80.487 M165.541 115.837 L 164.836 116.573 166.432 118.898 C 169.159 122.870,171.094 124.479,171.094 122.774 C 171.094 122.587,171.271 122.396,171.487 122.350 C 171.775 122.288,171.569 121.883,170.715 120.833 C 170.075 120.046,168.883 118.522,168.067 117.448 C 167.251 116.374,166.508 115.406,166.415 115.298 C 166.322 115.189,165.929 115.432,165.541 115.837 M163.550 119.584 C 163.545 119.685,163.674 120.058,163.836 120.414 C 164.002 120.778,164.041 121.267,163.925 121.533 C 163.812 121.793,163.740 122.098,163.764 122.211 C 163.789 122.324,163.679 122.661,163.519 122.959 C 163.358 123.261,163.343 123.430,163.486 123.342 C 163.627 123.254,163.810 123.441,163.893 123.757 C 163.975 124.072,163.915 124.409,163.759 124.506 C 163.603 124.602,163.555 124.812,163.654 124.971 C 163.967 125.478,163.539 125.841,163.068 125.468 C 161.843 124.498,165.531 128.364,167.271 129.873 C 185.600 145.777,211.378 146.081,230.013 130.614 C 233.375 127.824,231.916 127.283,228.057 129.889 C 205.922 144.838,179.536 140.736,163.948 119.922 C 163.734 119.635,163.555 119.483,163.550 119.584 M172.786 150.652 C 169.176 151.929,170.131 157.031,173.981 157.031 C 175.162 157.031,176.942 156.116,177.304 155.322 C 178.688 152.284,176.007 149.512,172.786 150.652 M129.886 153.134 C 114.743 155.683,113.325 175.744,127.949 180.542 C 132.587 182.064,139.629 180.770,142.892 177.798 L 143.467 177.274 142.516 176.072 C 141.993 175.411,141.218 174.494,140.794 174.034 L 140.023 173.199 139.217 173.880 C 134.782 177.629,127.218 176.099,124.599 170.923 C 120.440 162.704,130.292 154.627,138.470 159.552 C 139.274 160.036,140.012 160.341,140.109 160.229 C 140.206 160.117,140.965 159.214,141.795 158.221 L 143.303 156.416 142.550 155.807 C 139.754 153.545,134.292 152.392,129.886 153.134 M152.709 160.022 C 146.360 161.403,142.996 167.003,144.642 173.447 C 147.015 182.735,161.816 183.903,166.276 175.154 C 170.637 166.600,162.776 157.832,152.709 160.022 M192.374 159.903 C 191.004 160.249,189.981 160.815,188.807 161.876 L 187.801 162.784 187.620 161.340 L 187.440 159.896 184.736 159.896 L 182.031 159.896 182.031 170.313 L 182.031 180.729 184.896 180.729 L 187.760 180.729 187.760 174.731 C 187.760 166.552,188.752 164.583,192.870 164.583 C 196.586 164.583,197.242 166.006,197.347 174.284 L 197.429 180.729 200.277 180.729 L 203.125 180.729 203.125 174.260 C 203.125 164.942,202.325 162.332,198.941 160.607 C 197.352 159.797,194.152 159.453,192.374 159.903 M171.293 160.872 C 171.260 161.410,171.231 166.097,171.228 171.288 L 171.224 180.728 173.993 180.729 C 176.645 180.729,176.769 180.704,176.919 180.143 C 177.129 179.359,177.124 164.760,176.913 162.044 L 176.746 159.896 174.050 159.896 L 171.354 159.896 171.293 160.872 M158.277 164.727 C 164.224 167.212,162.337 176.345,155.870 176.376 C 151.758 176.396,149.111 172.964,150.036 168.815 C 150.808 165.356,154.910 163.321,158.277 164.727 " stroke="none" fill="#f6e9ba" fill-rule="evenodd"></path><path id="path1" d="M0.000 133.333 L 0.000 266.667 200.000 266.667 L 400.000 266.667 400.000 133.333 L 400.000 0.000 200.000 0.000 L 0.000 0.000 0.000 133.333 M232.682 50.077 C 233.229 50.640,234.047 51.144,234.704 51.322 C 235.311 51.487,235.983 51.679,236.198 51.749 C 236.413 51.819,236.043 52.019,235.377 52.194 C 233.223 52.757,231.938 54.001,231.185 56.250 L 230.792 57.422 230.460 56.147 C 229.988 54.336,228.427 52.781,226.628 52.329 C 225.152 51.958,224.821 51.566,225.977 51.557 C 228.048 51.540,229.867 49.816,230.503 47.266 L 230.827 45.964 231.296 47.548 C 231.605 48.595,232.075 49.452,232.682 50.077 M206.510 49.186 C 215.016 51.042,222.115 54.530,227.126 59.317 C 229.654 61.733,229.585 61.887,226.788 60.071 C 203.140 44.712,172.977 52.593,160.527 77.383 C 157.359 83.691,155.573 92.743,156.231 99.156 C 156.377 100.582,156.560 102.380,156.636 103.153 L 156.775 104.557 154.845 106.055 C 152.465 107.901,152.746 107.994,152.109 105.143 C 147.364 83.881,157.612 62.914,177.604 52.987 C 186.010 48.813,197.732 47.271,206.510 49.186 M240.621 55.234 C 240.631 56.265,242.140 57.771,243.636 58.242 C 245.164 58.724,245.129 58.863,243.385 59.241 C 242.969 59.331,242.290 59.768,241.875 60.212 L 241.121 61.019 240.728 60.457 C 240.500 60.131,240.056 59.896,239.669 59.896 C 239.302 59.896,238.401 59.702,237.665 59.464 C 236.930 59.227,236.152 58.984,235.938 58.926 C 235.723 58.867,236.190 58.602,236.975 58.335 C 238.612 57.780,239.461 56.895,239.906 55.278 C 240.194 54.231,240.611 54.206,240.621 55.234 M208.782 55.711 C 212.189 56.414,215.144 57.418,217.727 58.749 C 220.719 60.292,221.539 60.980,218.757 59.614 C 216.030 58.274,211.429 56.747,207.813 55.982 C 206.309 55.663,205.029 55.359,204.970 55.306 C 204.694 55.058,206.603 55.261,208.782 55.711 M194.734 65.039 L 194.806 68.750 196.427 68.750 L 198.049 68.750 198.048 65.039 L 198.047 61.328 200.716 61.254 L 203.385 61.180 203.385 64.914 L 203.385 68.648 205.313 68.972 C 210.278 69.807,213.021 72.860,213.021 77.554 L 213.021 79.232 210.742 81.411 C 209.489 82.609,208.388 83.590,208.295 83.591 C 208.203 83.593,207.031 84.646,205.691 85.931 L 203.255 88.268 198.763 88.275 L 194.271 88.281 194.271 92.044 L 194.271 95.807 193.368 96.496 C 192.251 97.347,192.539 97.467,188.958 94.661 L 185.966 92.318 185.952 83.789 C 185.935 73.960,185.998 74.221,183.659 74.216 C 182.979 74.214,181.978 74.140,181.436 74.050 L 180.451 73.887 180.525 71.384 L 180.599 68.880 185.091 68.809 L 189.583 68.738 189.583 64.958 L 189.583 61.179 192.122 61.254 L 194.661 61.328 194.734 65.039 M239.583 63.765 C 239.583 64.850,233.971 82.262,233.455 82.778 C 233.395 82.838,232.375 82.007,231.190 80.931 L 229.035 78.974 226.562 81.322 C 221.388 86.233,216.421 90.720,204.143 101.575 C 203.082 102.513,201.217 104.161,200.000 105.237 C 197.392 107.543,192.923 111.200,192.720 111.194 C 192.642 111.192,189.489 108.789,185.714 105.855 C 181.939 102.921,178.810 100.521,178.760 100.521 C 178.681 100.521,169.062 108.571,165.495 111.622 C 159.613 116.654,157.985 117.969,157.640 117.969 C 156.284 117.969,154.169 114.623,153.964 112.155 L 153.851 110.790 159.150 106.372 C 162.065 103.941,165.688 100.898,167.203 99.609 C 176.278 91.884,177.953 90.474,178.282 90.287 C 178.532 90.143,179.470 90.750,181.296 92.240 C 185.738 95.862,192.308 101.029,192.480 101.035 C 192.570 101.039,193.337 100.426,194.187 99.674 C 195.036 98.923,197.359 96.901,199.348 95.182 C 207.043 88.536,217.162 79.431,221.454 75.291 L 223.507 73.312 221.366 71.304 C 218.969 69.057,218.954 68.925,221.042 68.344 C 221.858 68.117,224.225 67.396,226.302 66.742 C 238.008 63.057,239.583 62.704,239.583 63.765 M246.875 63.522 C 246.875 64.335,248.115 65.590,249.102 65.775 C 250.014 65.946,250.102 66.406,249.223 66.406 C 248.467 66.406,247.193 67.634,246.987 68.562 L 246.800 69.401 246.322 68.282 C 245.936 67.379,245.609 67.059,244.624 66.623 L 243.403 66.083 244.226 65.737 C 245.318 65.278,246.354 64.215,246.354 63.554 C 246.354 63.261,246.471 63.021,246.615 63.021 C 246.758 63.021,246.875 63.246,246.875 63.522 M167.288 72.070 C 161.813 80.175,159.479 89.966,160.742 99.523 L 160.937 100.998 159.884 101.833 C 158.463 102.958,158.464 102.959,158.464 97.570 C 158.464 87.827,161.699 78.403,167.531 71.159 C 168.251 70.264,168.877 69.531,168.922 69.531 C 168.967 69.531,168.231 70.674,167.288 72.070 M241.307 72.463 C 241.467 72.784,242.213 74.271,242.966 75.767 C 250.493 90.733,247.937 110.880,236.817 124.240 C 216.190 149.024,177.823 147.771,159.699 121.722 L 159.139 120.917 160.994 119.391 C 162.674 118.009,162.877 117.908,163.131 118.332 C 165.775 122.734,171.131 128.171,175.225 130.608 C 176.817 131.555,177.032 131.635,176.302 131.007 C 175.801 130.575,175.482 130.219,175.593 130.215 C 176.054 130.199,174.937 128.657,173.396 127.180 C 170.020 123.948,167.550 121.003,165.314 117.546 L 164.620 116.473 165.509 115.611 C 165.998 115.137,166.434 114.800,166.477 114.862 C 166.520 114.923,166.976 115.618,167.490 116.406 C 173.816 126.105,185.572 132.411,197.266 132.380 C 220.530 132.317,241.017 109.091,238.001 86.198 C 237.322 81.044,237.294 81.300,239.069 76.367 C 240.764 71.656,240.839 71.525,241.307 72.463 M194.271 78.371 L 194.271 82.589 198.289 82.505 C 203.494 82.397,204.948 81.465,204.948 78.237 C 204.948 75.357,203.353 74.450,197.982 74.274 L 194.271 74.153 194.271 78.371 M228.125 101.453 L 228.125 111.760 226.507 113.757 C 224.771 115.901,221.403 119.406,221.237 119.241 C 221.128 119.131,221.003 102.514,221.059 95.508 L 221.094 91.146 224.609 91.146 L 228.125 91.146 228.125 101.453 M217.334 111.393 L 217.176 122.266 216.262 122.960 C 214.986 123.928,210.673 126.124,210.461 125.913 C 210.098 125.550,210.107 100.973,210.470 100.743 C 210.655 100.625,212.311 100.527,214.150 100.525 L 217.492 100.521 217.334 111.393 M184.570 109.463 C 184.820 109.619,184.896 111.614,184.896 117.995 L 184.896 126.324 183.659 125.615 C 182.979 125.224,181.367 124.194,180.078 123.325 L 177.734 121.745 177.665 115.570 L 177.595 109.395 180.008 109.320 C 183.479 109.212,184.205 109.235,184.570 109.463 M206.265 109.440 C 206.581 109.714,206.628 111.169,206.560 118.667 L 206.479 127.568 204.216 128.097 C 202.971 128.388,201.426 128.660,200.781 128.701 L 199.609 128.776 199.541 119.432 C 199.461 108.548,199.211 109.424,202.433 109.308 C 203.745 109.261,205.059 109.198,205.354 109.169 C 205.649 109.139,206.059 109.261,206.265 109.440 M190.741 114.714 C 192.831 116.115,192.548 116.093,194.122 114.974 C 194.827 114.473,195.501 114.063,195.619 114.063 C 195.737 114.063,195.833 117.419,195.833 121.522 L 195.833 128.982 194.206 128.822 C 193.311 128.734,191.758 128.453,190.755 128.198 L 188.932 127.734 188.863 120.638 C 188.825 116.735,188.839 113.542,188.894 113.542 C 188.949 113.542,189.780 114.069,190.741 114.714 M176.193 150.751 C 178.859 152.377,177.996 156.558,174.873 157.144 C 172.272 157.632,169.895 155.361,170.470 152.939 C 171.000 150.713,174.153 149.508,176.193 150.751 M224.859 153.217 C 236.961 156.733,239.183 172.789,228.406 178.843 C 225.163 180.665,224.252 180.807,215.625 180.835 L 207.943 180.859 207.875 166.714 L 207.808 152.569 215.558 152.668 C 221.923 152.748,223.584 152.846,224.859 153.217 M138.901 153.713 C 139.886 154.084,141.316 154.816,142.078 155.341 L 143.463 156.295 142.109 157.993 C 141.364 158.927,140.568 159.927,140.340 160.215 C 139.929 160.735,139.915 160.732,138.824 159.942 C 132.851 155.615,124.037 159.554,123.877 166.622 C 123.703 174.279,132.300 178.537,138.844 174.035 C 140.172 173.122,140.188 173.118,140.600 173.641 C 140.829 173.931,141.636 174.875,142.394 175.739 L 143.772 177.310 142.394 178.350 C 137.591 181.975,129.822 182.301,124.451 179.102 C 113.866 172.798,115.936 157.072,127.825 153.468 C 130.716 152.592,136.243 152.714,138.901 153.713 M214.063 166.694 L 214.063 175.575 218.164 175.464 C 225.167 175.273,227.958 173.345,228.943 168.018 C 230.112 161.694,225.635 157.830,217.122 157.817 L 214.063 157.813 214.063 166.694 M160.328 160.223 C 169.215 163.312,170.051 175.926,161.634 179.922 C 150.939 184.999,140.165 175.194,145.325 165.080 C 147.603 160.614,154.773 158.293,160.328 160.223 M196.964 159.774 C 198.443 159.974,199.804 160.765,200.990 162.113 C 202.859 164.236,202.956 164.758,203.064 173.372 L 203.160 180.990 200.148 180.990 L 197.135 180.990 197.130 174.544 C 197.122 166.059,196.580 164.822,192.854 164.788 C 189.745 164.760,187.918 166.838,187.885 170.443 C 187.874 171.589,187.842 174.434,187.813 176.766 L 187.760 181.007 184.831 180.933 L 181.901 180.859 181.901 170.313 L 181.901 159.766 184.766 159.766 L 187.630 159.766 187.707 161.218 L 187.784 162.670 188.712 161.795 C 189.955 160.622,191.507 159.862,193.093 159.649 C 194.369 159.478,194.907 159.495,196.964 159.774 M252.715 160.007 C 256.915 161.271,259.375 164.900,259.375 169.832 L 259.375 172.135 256.055 172.187 C 254.229 172.216,250.742 172.253,248.307 172.271 C 245.872 172.288,243.790 172.323,243.680 172.349 C 243.377 172.420,244.394 174.268,245.095 174.922 C 247.473 177.140,252.582 176.971,255.231 174.586 C 255.600 174.254,255.681 174.334,255.971 175.323 C 256.150 175.933,256.628 177.051,257.034 177.807 L 257.771 179.182 257.125 179.605 C 251.462 183.315,241.257 180.851,238.643 175.141 C 234.468 166.021,242.827 157.031,252.715 160.007 M177.021 170.378 L 177.089 180.990 174.091 180.990 L 171.094 180.990 171.094 170.486 C 171.094 164.709,171.176 159.901,171.276 159.801 C 171.376 159.701,172.694 159.652,174.205 159.692 L 176.953 159.766 177.021 170.378 M268.737 162.772 C 269.934 164.497,270.995 165.816,271.093 165.702 C 271.192 165.588,272.165 164.194,273.256 162.603 L 275.240 159.712 278.353 159.739 C 280.066 159.753,281.540 159.839,281.629 159.928 C 281.770 160.069,277.948 165.583,275.358 168.976 L 274.490 170.113 275.784 171.970 C 276.495 172.992,278.179 175.352,279.525 177.214 C 280.871 179.076,281.888 180.691,281.785 180.803 C 281.682 180.915,280.207 180.974,278.508 180.933 L 275.419 180.859 274.103 179.010 C 273.379 177.993,272.376 176.568,271.875 175.843 L 270.964 174.525 268.704 177.722 L 266.445 180.919 263.626 180.945 C 259.212 180.987,259.184 181.620,263.885 175.075 C 264.627 174.042,265.725 172.510,266.325 171.670 L 267.416 170.144 265.067 166.908 C 263.775 165.128,262.142 162.892,261.437 161.938 C 259.689 159.572,259.636 159.635,263.358 159.635 L 266.559 159.635 268.737 162.772 M247.105 164.161 C 245.629 164.689,244.696 165.481,244.068 166.737 C 243.153 168.570,242.942 168.490,248.698 168.490 C 251.563 168.490,253.906 168.402,253.905 168.294 C 253.883 165.349,250.143 163.076,247.105 164.161 M154.414 164.672 C 150.538 165.736,148.865 169.681,150.735 173.347 C 152.405 176.620,156.867 177.337,159.695 174.787 C 164.355 170.585,160.409 163.026,154.414 164.672 " stroke="none" fill="#141c24" fill-rule="evenodd"></path><path id="path2" d="M246.124 64.338 C 245.800 64.777,245.169 65.357,244.723 65.628 L 243.913 66.122 244.571 66.372 C 245.282 66.642,246.614 68.078,246.615 68.575 C 246.615 68.743,246.820 68.470,247.071 67.969 C 247.355 67.399,247.913 66.868,248.559 66.553 L 249.593 66.049 248.868 65.855 C 247.922 65.602,247.385 65.139,247.015 64.257 L 246.713 63.541 246.124 64.338 M240.633 72.416 C 240.629 72.642,240.098 74.259,239.454 76.010 L 238.283 79.194 238.802 80.808 C 239.294 82.339,240.099 86.936,240.103 88.235 C 240.105 89.069,239.366 89.811,239.043 89.300 C 238.881 89.044,238.797 89.250,238.767 89.974 L 238.724 91.016 238.542 89.844 C 238.405 88.963,238.350 89.374,238.320 91.504 C 238.224 98.490,235.614 106.589,231.363 113.093 C 218.619 132.592,193.942 138.372,176.563 125.929 C 175.090 124.875,175.005 124.840,175.911 125.665 C 190.882 139.294,216.318 136.019,231.640 118.490 C 232.328 117.702,232.752 117.322,232.581 117.646 C 232.255 118.264,233.234 119.503,234.065 119.523 C 234.252 119.528,234.333 119.648,234.245 119.792 C 234.156 119.935,234.267 120.052,234.490 120.052 C 234.713 120.052,234.896 120.184,234.896 120.344 C 234.896 120.559,234.988 120.560,235.245 120.347 C 235.612 120.043,235.940 120.202,235.934 120.681 C 235.931 120.837,235.808 120.788,235.659 120.573 C 235.437 120.252,235.406 120.275,235.483 120.703 C 235.535 120.990,235.713 121.196,235.878 121.162 C 236.924 120.947,232.457 126.480,230.078 128.348 C 229.378 128.897,229.370 128.918,230.004 128.543 C 230.890 128.019,231.108 128.020,231.641 128.553 C 232.037 128.949,232.163 128.888,233.375 127.706 C 245.487 115.896,250.155 97.174,245.014 81.027 C 243.928 77.616,240.658 71.188,240.633 72.416 M221.120 98.633 C 221.134 102.607,221.239 106.152,221.354 106.510 C 221.469 106.868,221.574 107.011,221.589 106.827 C 221.607 106.585,221.746 106.562,222.089 106.746 C 222.350 106.886,223.668 107.036,225.017 107.081 L 227.470 107.161 227.636 107.943 C 227.728 108.372,227.817 104.827,227.834 100.065 L 227.865 91.406 224.479 91.406 L 221.094 91.406 221.120 98.633 M210.742 100.693 C 210.493 100.794,210.427 102.294,210.460 107.118 C 210.485 110.579,210.548 113.001,210.602 112.500 L 210.701 111.589 213.228 111.674 C 214.618 111.721,215.960 111.775,216.211 111.795 C 216.543 111.821,216.678 112.079,216.709 112.751 C 216.805 114.850,217.122 109.424,217.153 105.143 L 217.188 100.521 214.128 100.541 C 212.445 100.553,210.921 100.621,210.742 100.693 M177.697 110.976 C 177.789 111.856,177.876 113.350,177.891 114.296 C 177.910 115.553,177.973 115.840,178.125 115.365 C 178.240 115.007,178.345 114.839,178.359 114.992 C 178.376 115.170,179.442 115.285,181.294 115.308 C 183.096 115.331,184.270 115.455,184.380 115.633 C 184.589 115.971,184.896 113.327,184.896 111.188 C 184.896 109.336,184.983 109.375,180.801 109.375 L 177.530 109.375 177.697 110.976 M200.195 109.555 C 199.783 109.662,199.744 110.064,199.787 113.756 C 199.812 116.001,199.877 117.296,199.930 116.632 L 200.026 115.426 201.120 115.680 C 201.721 115.820,203.063 115.874,204.102 115.800 C 205.899 115.672,205.992 115.692,206.030 116.231 C 206.086 117.020,206.453 112.696,206.485 110.872 L 206.510 109.375 203.581 109.405 C 201.969 109.422,200.446 109.489,200.195 109.555 M188.825 115.169 C 188.848 116.541,189.223 119.460,189.288 118.776 C 189.317 118.476,189.813 118.440,192.044 118.577 C 194.074 118.701,194.817 118.662,194.968 118.421 C 195.101 118.210,195.230 118.367,195.341 118.880 C 195.439 119.328,195.524 118.515,195.542 116.977 C 195.566 114.892,195.500 114.336,195.247 114.489 C 195.068 114.597,194.470 115.010,193.918 115.407 L 192.914 116.129 191.835 115.579 C 191.241 115.276,190.393 114.753,189.949 114.416 C 188.849 113.577,188.799 113.611,188.825 115.169 M213.997 152.804 L 208.073 152.874 208.073 166.822 L 208.073 180.769 215.951 180.661 C 224.543 180.544,224.841 180.499,227.993 178.862 C 237.406 173.972,237.557 159.659,228.248 154.784 C 224.835 152.997,222.708 152.701,213.997 152.804 M224.219 158.755 C 228.642 160.816,230.426 166.036,228.296 170.687 C 226.592 174.409,223.597 175.781,217.175 175.781 L 213.802 175.781 213.802 166.771 L 213.802 157.760 218.164 157.863 C 222.369 157.963,222.587 157.995,224.219 158.755 M246.227 159.941 C 235.247 162.035,234.841 177.744,245.692 180.634 C 248.537 181.391,253.230 181.065,256.185 179.904 C 257.779 179.278,257.721 179.422,256.924 178.041 C 256.578 177.443,256.148 176.452,255.969 175.839 C 255.789 175.226,255.574 174.758,255.490 174.797 C 255.407 174.837,254.537 175.272,253.557 175.764 C 250.162 177.467,246.310 176.834,244.338 174.249 C 242.668 172.059,242.416 172.135,251.281 172.135 L 259.073 172.135 259.246 171.349 C 260.803 164.259,254.152 158.430,246.227 159.941 M262.936 163.737 C 264.464 165.850,266.104 168.093,266.581 168.722 C 267.724 170.231,267.917 169.748,263.978 175.240 C 262.070 177.901,260.422 180.225,260.317 180.404 C 260.168 180.657,260.824 180.729,263.258 180.729 L 266.390 180.729 268.352 177.945 C 269.432 176.414,270.463 174.938,270.645 174.665 C 270.945 174.213,273.306 177.170,275.233 180.412 C 275.381 180.661,276.235 180.727,278.597 180.672 L 281.763 180.599 278.019 175.391 L 274.276 170.182 275.151 169.010 C 275.633 168.366,277.312 166.051,278.883 163.867 L 281.739 159.896 278.515 159.896 L 275.290 159.896 273.257 162.883 C 272.139 164.525,271.107 165.872,270.964 165.875 C 270.820 165.879,269.776 164.535,268.642 162.889 L 266.582 159.896 263.370 159.896 L 260.158 159.896 262.936 163.737 M251.119 164.154 C 252.516 164.737,254.660 167.823,254.075 168.407 C 253.878 168.605,243.839 168.716,243.535 168.523 C 242.719 168.006,244.810 164.922,246.484 164.172 C 247.502 163.717,250.049 163.707,251.119 164.154 " stroke="none" fill="#47c1f3" fill-rule="evenodd"></path><path id="path3" d="M210.156 56.373 C 211.539 56.833,211.641 56.847,211.315 56.531 C 211.179 56.399,210.599 56.221,210.026 56.137 L 208.984 55.983 210.156 56.373 M227.962 94.141 C 227.963 95.716,228.005 96.327,228.057 95.498 C 228.109 94.670,228.109 93.380,228.056 92.634 C 228.004 91.887,227.961 92.565,227.962 94.141 M246.941 98.307 C 246.944 98.880,246.997 99.084,247.059 98.760 C 247.121 98.436,247.119 97.967,247.054 97.718 C 246.989 97.469,246.938 97.734,246.941 98.307 M227.939 100.651 C 227.941 101.367,227.992 101.629,228.051 101.233 C 228.111 100.838,228.110 100.252,228.048 99.931 C 227.986 99.611,227.937 99.935,227.939 100.651 M221.120 112.623 L 221.094 119.386 222.813 117.701 C 227.548 113.060,228.372 111.393,227.636 107.943 L 227.470 107.161 225.017 107.081 C 223.668 107.036,222.350 106.886,222.089 106.746 C 221.746 106.562,221.607 106.585,221.589 106.827 C 221.574 107.011,221.469 106.868,221.354 106.510 C 221.237 106.145,221.134 108.827,221.120 112.623 M216.890 111.914 C 216.862 113.239,216.814 113.447,216.695 112.760 C 216.514 111.722,216.601 111.749,213.114 111.653 L 210.734 111.589 210.578 112.891 C 210.492 113.607,210.420 116.860,210.419 120.121 L 210.417 126.049 211.393 125.644 C 211.930 125.421,213.454 124.594,214.779 123.806 L 217.188 122.372 217.188 116.264 C 217.188 110.711,216.979 107.667,216.890 111.914 M177.716 116.520 L 177.734 121.712 179.427 122.854 C 181.295 124.114,184.511 126.042,184.746 126.042 C 184.828 126.042,184.875 123.258,184.850 119.857 C 184.825 116.455,184.759 114.193,184.703 114.831 C 184.644 115.494,184.516 115.854,184.404 115.672 C 184.272 115.458,183.279 115.341,181.362 115.312 C 179.685 115.287,178.437 115.155,178.324 114.992 C 178.216 114.835,178.110 114.997,178.080 115.365 C 178.051 115.723,177.952 114.961,177.862 113.672 C 177.747 112.047,177.703 112.922,177.716 116.520 M206.275 114.844 C 206.222 115.918,206.130 116.543,206.069 116.232 C 205.965 115.700,205.851 115.675,204.086 115.801 C 203.056 115.874,201.731 115.822,201.141 115.685 L 200.069 115.435 199.906 117.158 C 199.817 118.105,199.742 121.120,199.741 123.857 L 199.740 128.834 200.456 128.722 C 202.150 128.456,206.137 127.532,206.319 127.363 C 206.429 127.262,206.486 123.964,206.445 120.035 C 206.405 116.105,206.328 113.770,206.275 114.844 M195.157 114.363 C 195.042 114.549,195.086 114.593,195.272 114.478 C 195.493 114.342,195.565 115.007,195.542 116.977 C 195.524 118.515,195.439 119.328,195.341 118.880 C 195.230 118.367,195.101 118.210,194.968 118.421 C 194.817 118.662,194.074 118.701,192.044 118.577 C 189.814 118.440,189.316 118.476,189.284 118.776 C 189.262 118.976,189.163 118.613,189.063 117.969 C 188.956 117.284,188.864 119.033,188.841 122.172 L 188.802 127.547 190.820 128.077 C 191.930 128.368,193.436 128.683,194.166 128.776 L 195.494 128.944 195.662 127.167 C 195.754 126.190,195.830 122.842,195.831 119.727 C 195.833 114.464,195.709 113.471,195.157 114.363 M230.859 119.319 C 216.252 136.270,189.793 139.023,175.324 125.098 C 172.373 122.257,171.674 121.972,171.586 123.575 C 171.495 125.225,171.704 125.520,175.004 128.394 C 176.726 129.893,178.448 131.568,178.830 132.116 C 180.570 134.609,189.855 137.807,197.526 138.555 C 206.655 139.445,218.222 136.458,226.007 131.199 C 230.507 128.160,231.343 127.431,234.013 124.219 C 235.868 121.987,236.442 121.046,235.878 121.162 C 235.713 121.196,235.535 120.990,235.483 120.703 C 235.406 120.275,235.437 120.252,235.659 120.573 C 235.808 120.788,235.931 120.837,235.934 120.681 C 235.940 120.202,235.612 120.043,235.245 120.347 C 234.988 120.560,234.896 120.559,234.896 120.344 C 234.896 120.184,234.713 120.052,234.490 120.052 C 234.267 120.052,234.156 119.935,234.245 119.792 C 234.333 119.648,234.252 119.528,234.065 119.523 C 233.291 119.504,232.254 118.264,232.550 117.711 C 232.994 116.883,232.798 117.069,230.859 119.319 M224.593 121.159 L 223.828 122.005 224.674 121.240 C 225.140 120.820,225.521 120.439,225.521 120.394 C 225.521 120.193,225.306 120.370,224.593 121.159 M211.017 152.799 C 212.708 152.844,215.404 152.844,217.007 152.798 C 218.610 152.753,217.227 152.716,213.932 152.716 C 210.638 152.716,209.326 152.753,211.017 152.799 M246.427 168.681 C 247.112 168.735,248.166 168.734,248.771 168.680 C 249.375 168.625,248.815 168.581,247.526 168.582 C 246.237 168.583,245.742 168.627,246.427 168.681 M248.633 181.180 C 249.242 181.235,250.238 181.235,250.846 181.180 C 251.455 181.125,250.957 181.081,249.740 181.081 C 248.522 181.081,248.024 181.125,248.633 181.180 " stroke="none" fill="#2b68c7" fill-rule="evenodd"></path><path id="path4" d="M193.294 48.627 C 193.831 48.683,194.710 48.683,195.247 48.627 C 195.785 48.571,195.345 48.525,194.271 48.525 C 193.197 48.525,192.757 48.571,193.294 48.627 M199.935 48.626 C 200.400 48.684,201.162 48.684,201.628 48.626 C 202.093 48.568,201.712 48.521,200.781 48.521 C 199.850 48.521,199.469 48.568,199.935 48.626 M190.951 48.877 C 191.201 48.943,191.611 48.943,191.862 48.877 C 192.113 48.812,191.908 48.758,191.406 48.758 C 190.905 48.758,190.700 48.812,190.951 48.877 M227.474 51.181 C 227.044 51.378,226.875 51.544,227.099 51.551 C 227.322 51.557,227.732 51.390,228.010 51.180 C 228.627 50.713,228.495 50.714,227.474 51.181 M179.688 51.953 C 179.329 52.158,179.154 52.325,179.297 52.325 C 179.440 52.325,179.850 52.158,180.208 51.953 C 180.566 51.748,180.742 51.581,180.599 51.581 C 180.456 51.581,180.046 51.748,179.688 51.953 M235.547 51.823 C 235.635 51.966,235.884 52.083,236.098 52.083 C 236.313 52.083,236.417 51.966,236.328 51.823 C 236.240 51.680,235.991 51.563,235.777 51.563 C 235.562 51.563,235.458 51.680,235.547 51.823 M196.553 52.268 C 196.876 52.330,197.345 52.327,197.594 52.262 C 197.843 52.197,197.578 52.146,197.005 52.149 C 196.432 52.152,196.229 52.205,196.553 52.268 M203.454 52.270 C 203.850 52.330,204.436 52.328,204.756 52.267 C 205.076 52.205,204.753 52.156,204.036 52.158 C 203.320 52.160,203.058 52.210,203.454 52.270 M206.055 52.523 C 206.305 52.589,206.715 52.589,206.966 52.523 C 207.217 52.458,207.012 52.404,206.510 52.404 C 206.009 52.404,205.804 52.458,206.055 52.523 M232.992 53.190 C 232.522 53.656,232.436 53.788,232.800 53.485 C 233.165 53.182,233.698 52.805,233.984 52.647 C 234.271 52.489,234.357 52.356,234.176 52.352 C 233.995 52.347,233.462 52.725,232.992 53.190 M229.034 53.647 C 230.269 55.090,230.286 55.106,230.004 54.557 C 229.856 54.271,229.402 53.744,228.995 53.386 L 228.255 52.736 229.034 53.647 M185.726 54.605 C 185.108 54.823,184.649 55.048,184.705 55.104 C 184.824 55.223,187.240 54.430,187.240 54.272 C 187.240 54.109,186.943 54.174,185.726 54.605 M206.250 55.622 C 207.038 55.818,207.858 55.904,208.073 55.814 C 208.528 55.622,206.804 55.231,205.599 55.252 C 205.022 55.262,205.192 55.359,206.250 55.622 M230.367 55.859 C 230.581 56.817,230.731 57.025,230.725 56.359 C 230.723 56.084,230.602 55.684,230.457 55.469 C 230.264 55.183,230.240 55.289,230.367 55.859 M181.771 56.250 C 181.270 56.524,180.977 56.749,181.120 56.749 C 181.263 56.749,181.790 56.524,182.292 56.250 C 182.793 55.976,183.086 55.751,182.943 55.751 C 182.799 55.751,182.272 55.976,181.771 56.250 M208.594 55.990 C 208.594 56.316,208.870 56.316,209.375 55.990 C 209.691 55.785,209.653 55.736,209.180 55.733 C 208.857 55.731,208.594 55.846,208.594 55.990 M170.964 56.924 L 170.182 57.595 171.029 57.035 C 171.494 56.727,171.875 56.424,171.875 56.362 C 171.875 56.168,171.765 56.235,170.964 56.924 M241.122 56.727 C 241.263 56.990,241.582 57.370,241.832 57.574 C 242.114 57.802,242.051 57.620,241.667 57.096 C 240.983 56.162,240.727 55.988,241.122 56.727 M221.115 56.868 C 221.383 57.108,222.917 57.812,222.917 57.696 C 222.917 57.546,221.473 56.771,221.193 56.771 C 221.091 56.771,221.056 56.815,221.115 56.868 M215.801 58.004 C 215.736 58.113,216.870 58.759,218.323 59.438 C 221.281 60.822,221.060 60.478,217.952 58.861 C 216.835 58.280,215.867 57.894,215.801 58.004 M226.432 58.854 C 226.992 59.427,227.508 59.896,227.580 59.896 C 227.651 59.896,227.252 59.427,226.693 58.854 C 226.133 58.281,225.617 57.813,225.545 57.813 C 225.474 57.813,225.873 58.281,226.432 58.854 M235.807 58.854 C 235.896 58.997,236.225 59.106,236.539 59.096 C 237.089 59.079,237.091 59.070,236.589 58.854 C 235.872 58.546,235.617 58.546,235.807 58.854 M244.010 58.854 C 243.474 59.026,243.451 59.067,243.880 59.085 C 244.167 59.097,244.577 58.993,244.792 58.854 C 245.248 58.559,244.931 58.559,244.010 58.854 M175.451 59.775 C 174.917 60.138,174.479 60.491,174.479 60.560 C 174.479 60.628,174.948 60.374,175.521 59.995 C 176.431 59.393,176.738 59.115,176.493 59.115 C 176.454 59.115,175.986 59.412,175.451 59.775 M242.151 59.651 L 241.536 60.187 242.318 59.730 C 243.346 59.128,243.361 59.115,243.041 59.115 C 242.890 59.115,242.489 59.356,242.151 59.651 M166.406 60.547 C 165.774 61.191,165.315 61.719,165.386 61.719 C 165.458 61.719,166.034 61.191,166.667 60.547 C 167.299 59.902,167.758 59.375,167.687 59.375 C 167.615 59.375,167.039 59.902,166.406 60.547 M238.867 59.815 C 239.118 59.880,239.528 59.880,239.779 59.815 C 240.029 59.749,239.824 59.696,239.323 59.696 C 238.822 59.696,238.617 59.749,238.867 59.815 M192.057 61.388 L 194.531 61.477 194.531 65.244 L 194.531 69.010 196.419 68.959 L 198.307 68.908 196.557 68.817 L 194.806 68.727 194.734 65.027 L 194.661 61.328 192.122 61.313 L 189.582 61.298 192.057 61.388 M198.086 61.393 C 198.019 61.501,198.803 61.557,199.829 61.517 C 203.178 61.389,203.565 61.286,200.862 61.242 C 199.402 61.218,198.153 61.286,198.086 61.393 M169.006 65.299 L 166.276 68.099 169.076 65.369 C 170.615 63.868,171.875 62.608,171.875 62.570 C 171.875 62.382,171.541 62.699,169.006 65.299 M198.009 64.974 C 198.008 66.263,198.052 66.823,198.107 66.219 C 198.162 65.614,198.162 64.560,198.108 63.875 C 198.055 63.190,198.010 63.685,198.009 64.974 M162.746 64.258 L 161.849 65.234 162.826 64.337 C 163.734 63.502,163.922 63.281,163.723 63.281 C 163.679 63.281,163.240 63.721,162.746 64.258 M220.182 68.610 C 219.177 69.071,219.644 69.078,220.833 68.620 C 221.335 68.427,221.569 68.265,221.354 68.261 C 221.139 68.256,220.612 68.414,220.182 68.610 M203.354 68.823 C 203.480 68.948,203.919 69.009,204.330 68.958 C 205.019 68.872,205.001 68.854,204.102 68.729 C 203.542 68.652,203.223 68.692,203.354 68.823 M180.580 69.096 C 180.507 69.287,180.487 70.488,180.535 71.765 L 180.622 74.089 180.676 71.556 L 180.729 69.023 185.221 68.945 L 189.714 68.867 185.213 68.809 C 181.669 68.762,180.685 68.824,180.580 69.096 M167.881 70.703 C 167.342 71.348,167.019 71.875,167.162 71.875 C 167.306 71.875,167.786 71.348,168.229 70.703 C 168.673 70.059,168.996 69.531,168.948 69.531 C 168.900 69.531,168.419 70.059,167.881 70.703 M207.574 69.628 C 207.842 69.868,209.375 70.573,209.375 70.456 C 209.375 70.306,207.931 69.531,207.652 69.531 C 207.549 69.531,207.514 69.575,207.574 69.628 M156.241 73.583 C 155.786 74.379,155.456 75.074,155.508 75.126 C 155.560 75.178,155.987 74.527,156.457 73.678 C 156.928 72.830,157.257 72.135,157.191 72.135 C 157.124 72.135,156.697 72.787,156.241 73.583 M166.425 72.503 C 166.191 72.786,166.198 72.915,166.459 73.065 C 166.645 73.173,166.711 73.165,166.606 73.049 C 166.500 72.933,166.618 72.684,166.866 72.495 C 167.114 72.306,167.186 72.148,167.024 72.144 C 166.863 72.139,166.593 72.301,166.425 72.503 M221.476 75.326 L 219.922 76.953 221.549 75.399 C 222.445 74.544,223.177 73.811,223.177 73.771 C 223.177 73.579,222.920 73.814,221.476 75.326 M182.161 74.113 C 183.381 74.309,185.097 74.334,184.986 74.154 C 184.919 74.046,184.140 73.974,183.253 73.994 C 182.366 74.013,181.875 74.067,182.161 74.113 M194.130 78.385 L 194.141 82.682 197.786 82.693 L 201.432 82.704 197.858 82.621 L 194.284 82.538 194.202 78.313 L 194.120 74.089 194.130 78.385 M160.403 77.110 C 159.820 78.271,159.384 79.263,159.436 79.314 C 159.487 79.365,160.021 78.416,160.622 77.204 C 161.223 75.992,161.659 75.000,161.590 75.000 C 161.521 75.000,160.987 75.950,160.403 77.110 M185.936 78.332 L 186.065 81.641 186.140 78.537 C 186.181 76.830,186.123 75.342,186.011 75.229 C 185.899 75.116,185.865 76.513,185.936 78.332 M163.672 76.823 C 163.309 77.539,163.071 78.125,163.142 78.125 C 163.214 78.125,163.569 77.539,163.932 76.823 C 164.295 76.107,164.534 75.521,164.462 75.521 C 164.390 75.521,164.035 76.107,163.672 76.823 M212.811 77.296 L 212.760 79.202 211.133 80.768 C 208.661 83.148,207.896 83.675,206.959 83.649 C 205.926 83.619,204.427 84.699,204.427 85.472 C 204.427 85.775,204.113 86.560,203.730 87.217 L 203.032 88.411 204.977 86.589 C 207.385 84.332,207.442 84.281,210.180 81.890 C 212.909 79.508,213.074 79.221,212.955 77.075 L 212.861 75.391 212.811 77.296 M154.469 77.225 C 154.033 78.182,154.116 78.387,154.588 77.516 C 154.808 77.109,154.940 76.728,154.880 76.669 C 154.821 76.609,154.636 76.859,154.469 77.225 M217.708 78.776 C 217.076 79.421,216.617 79.948,216.688 79.948 C 216.760 79.948,217.336 79.421,217.969 78.776 C 218.601 78.132,219.060 77.604,218.989 77.604 C 218.917 77.604,218.341 78.132,217.708 78.776 M230.078 79.948 C 230.638 80.521,231.154 80.990,231.225 80.990 C 231.297 80.990,230.898 80.521,230.339 79.948 C 229.779 79.375,229.263 78.906,229.191 78.906 C 229.120 78.906,229.519 79.375,230.078 79.948 M226.302 81.380 C 225.670 82.025,225.211 82.552,225.282 82.552 C 225.354 82.552,225.930 82.025,226.563 81.380 C 227.195 80.736,227.654 80.208,227.582 80.208 C 227.511 80.208,226.935 80.736,226.302 81.380 M214.830 81.445 L 213.932 82.422 214.909 81.524 C 215.818 80.689,216.005 80.469,215.806 80.469 C 215.763 80.469,215.323 80.908,214.830 81.445 M203.751 81.286 C 203.478 81.592,202.904 81.997,202.474 82.187 C 201.984 82.403,201.864 82.535,202.152 82.542 C 202.557 82.551,204.796 80.754,204.402 80.736 C 204.317 80.732,204.024 80.980,203.751 81.286 M152.510 82.757 C 152.275 83.594,152.092 84.447,152.102 84.653 C 152.112 84.858,152.350 84.219,152.631 83.233 C 152.912 82.248,153.096 81.395,153.040 81.338 C 152.983 81.282,152.745 81.921,152.510 82.757 M211.839 84.180 L 210.547 85.547 211.914 84.255 C 213.184 83.054,213.401 82.813,213.206 82.813 C 213.165 82.813,212.550 83.428,211.839 84.180 M186.003 84.505 C 186.006 85.078,186.059 85.282,186.122 84.958 C 186.184 84.634,186.182 84.165,186.116 83.916 C 186.051 83.667,186.000 83.932,186.003 84.505 M222.256 85.221 L 220.964 86.589 222.331 85.296 C 223.601 84.095,223.817 83.854,223.623 83.854 C 223.582 83.854,222.967 84.469,222.256 85.221 M161.082 85.561 C 160.984 86.084,160.956 86.564,161.020 86.627 C 161.083 86.691,161.216 86.315,161.314 85.793 C 161.412 85.270,161.440 84.791,161.376 84.727 C 161.313 84.663,161.180 85.039,161.082 85.561 M208.968 86.784 L 208.203 87.630 209.049 86.865 C 209.515 86.445,209.896 86.064,209.896 86.019 C 209.896 85.818,209.681 85.995,208.968 86.784 M238.081 86.719 C 238.081 87.220,238.135 87.425,238.200 87.174 C 238.266 86.924,238.266 86.514,238.200 86.263 C 238.135 86.012,238.081 86.217,238.081 86.719 M219.271 87.891 C 218.638 88.535,218.179 89.063,218.251 89.063 C 218.323 89.063,218.899 88.535,219.531 87.891 C 220.164 87.246,220.623 86.719,220.551 86.719 C 220.480 86.719,219.903 87.246,219.271 87.891 M151.363 88.281 C 151.363 88.783,151.416 88.988,151.482 88.737 C 151.547 88.486,151.547 88.076,151.482 87.826 C 151.416 87.575,151.363 87.780,151.363 88.281 M186.006 89.844 L 185.966 92.318 188.958 94.661 C 192.539 97.467,192.251 97.347,193.368 96.496 L 194.271 95.807 194.271 92.050 L 194.271 88.294 198.568 88.213 L 202.865 88.132 198.503 88.141 L 194.141 88.151 194.069 92.000 L 193.996 95.849 193.027 95.128 C 192.494 94.731,191.146 93.673,190.031 92.776 C 187.826 91.002,187.496 90.890,186.728 91.657 C 186.220 92.165,186.217 92.153,186.131 89.769 L 186.046 87.370 186.006 89.844 M156.422 89.510 C 155.983 92.259,155.732 96.923,155.928 98.698 C 156.123 100.473,156.144 100.307,156.157 96.875 C 156.164 94.798,156.313 92.120,156.487 90.923 C 156.661 89.727,156.753 88.697,156.691 88.636 C 156.630 88.574,156.509 88.968,156.422 89.510 M160.482 89.453 C 160.485 90.026,160.539 90.230,160.601 89.906 C 160.663 89.582,160.661 89.113,160.596 88.864 C 160.530 88.615,160.479 88.880,160.482 89.453 M151.107 90.495 C 151.110 91.068,151.164 91.271,151.226 90.947 C 151.288 90.624,151.286 90.155,151.221 89.906 C 151.155 89.657,151.104 89.922,151.107 90.495 M160.256 93.880 C 160.256 95.599,160.298 96.268,160.349 95.367 C 160.400 94.467,160.400 93.060,160.348 92.242 C 160.297 91.424,160.255 92.161,160.256 93.880 M223.372 91.339 C 224.268 91.389,225.732 91.389,226.628 91.339 C 227.523 91.288,226.790 91.246,225.000 91.246 C 223.210 91.246,222.477 91.288,223.372 91.339 M175.895 92.253 L 175.130 93.099 175.977 92.334 C 176.442 91.913,176.823 91.533,176.823 91.488 C 176.823 91.287,176.608 91.464,175.895 92.253 M214.063 92.578 C 213.430 93.223,212.971 93.750,213.043 93.750 C 213.114 93.750,213.690 93.223,214.323 92.578 C 214.955 91.934,215.414 91.406,215.343 91.406 C 215.271 91.406,214.695 91.934,214.063 92.578 M150.876 94.661 C 150.877 96.094,150.921 96.646,150.974 95.890 C 151.026 95.133,151.026 93.961,150.972 93.286 C 150.919 92.610,150.876 93.229,150.876 94.661 M200.635 94.076 L 199.870 94.922 200.716 94.157 C 201.182 93.736,201.563 93.355,201.563 93.311 C 201.563 93.109,201.348 93.287,200.635 94.076 M158.436 97.266 C 158.436 99.271,158.477 100.057,158.527 99.012 C 158.576 97.967,158.576 96.327,158.526 95.366 C 158.476 94.406,158.436 95.260,158.436 97.266 M247.196 94.792 C 247.196 95.293,247.249 95.498,247.315 95.247 C 247.380 94.997,247.380 94.587,247.315 94.336 C 247.249 94.085,247.196 94.290,247.196 94.792 M209.361 96.810 L 208.464 97.786 209.440 96.889 C 210.349 96.054,210.536 95.833,210.338 95.833 C 210.294 95.833,209.855 96.273,209.361 96.810 M196.468 97.721 L 195.703 98.568 196.549 97.803 C 197.015 97.382,197.396 97.001,197.396 96.956 C 197.396 96.755,197.181 96.932,196.468 97.721 M151.061 98.459 C 151.072 99.092,151.179 100.137,151.301 100.781 C 151.461 101.633,151.482 101.348,151.378 99.740 C 151.225 97.362,151.029 96.573,151.061 98.459 M160.482 98.568 C 160.485 99.141,160.539 99.344,160.601 99.020 C 160.663 98.696,160.661 98.228,160.596 97.979 C 160.530 97.730,160.479 97.995,160.482 98.568 M206.885 99.023 L 206.120 99.870 206.966 99.105 C 207.432 98.684,207.813 98.303,207.813 98.259 C 207.813 98.057,207.598 98.235,206.885 99.023 M194.645 99.284 L 193.880 100.130 194.727 99.365 C 195.192 98.945,195.573 98.564,195.573 98.519 C 195.573 98.318,195.358 98.495,194.645 99.284 M160.707 100.425 C 160.664 101.217,158.939 102.521,158.773 101.887 C 158.684 101.546,158.647 101.579,158.624 102.018 C 158.584 102.798,158.797 102.755,159.991 101.745 C 160.707 101.139,160.960 100.746,160.867 100.382 C 160.747 99.906,160.735 99.909,160.707 100.425 M217.297 105.729 C 217.297 108.665,217.335 109.867,217.382 108.398 C 217.428 106.930,217.428 104.528,217.382 103.060 C 217.335 101.592,217.297 102.793,217.297 105.729 M156.394 102.523 C 156.520 104.542,156.224 105.138,155.564 104.196 C 155.205 103.684,155.130 103.673,154.426 104.037 C 154.011 104.252,153.380 104.427,153.023 104.427 C 152.119 104.427,151.990 104.777,152.347 106.262 C 152.725 107.839,152.527 107.856,154.825 106.055 C 156.901 104.427,156.919 104.382,156.501 101.953 C 156.300 100.790,156.289 100.851,156.394 102.523 M210.276 112.760 C 210.276 119.421,210.310 122.145,210.351 118.815 C 210.393 115.485,210.393 110.036,210.351 106.706 C 210.310 103.376,210.276 106.100,210.276 112.760 M202.722 102.669 L 201.693 103.776 202.799 102.747 C 203.829 101.789,204.026 101.563,203.829 101.563 C 203.786 101.563,203.288 102.061,202.722 102.669 M227.864 106.954 C 227.793 109.847,227.825 112.124,227.935 112.013 C 228.046 111.902,228.104 109.535,228.065 106.752 L 227.994 101.693 227.864 106.954 M200.635 104.492 L 199.870 105.339 200.716 104.574 C 201.182 104.153,201.563 103.772,201.563 103.727 C 201.563 103.526,201.348 103.703,200.635 104.492 M220.908 104.818 C 220.910 105.534,220.960 105.796,221.020 105.400 C 221.080 105.004,221.078 104.418,221.017 104.098 C 220.955 103.778,220.906 104.102,220.908 104.818 M198.423 106.445 L 197.526 107.422 198.503 106.524 C 199.412 105.689,199.599 105.469,199.400 105.469 C 199.357 105.469,198.917 105.908,198.423 106.445 M199.597 119.271 C 199.597 124.499,199.632 126.637,199.674 124.023 C 199.717 121.410,199.717 117.132,199.674 114.518 C 199.632 111.904,199.597 114.043,199.597 119.271 M165.393 115.726 C 164.746 116.394,164.623 116.657,164.886 116.809 C 165.078 116.920,165.145 116.912,165.035 116.792 C 164.926 116.671,165.155 116.240,165.543 115.835 L 166.250 115.097 166.852 115.817 L 167.454 116.536 166.995 115.692 C 166.429 114.649,166.437 114.649,165.393 115.726 M158.968 116.992 L 158.203 117.839 159.049 117.074 C 159.515 116.653,159.896 116.272,159.896 116.227 C 159.896 116.026,159.681 116.203,158.968 116.992 M223.037 117.513 L 221.745 118.880 223.112 117.588 C 224.382 116.387,224.599 116.146,224.404 116.146 C 224.363 116.146,223.748 116.761,223.037 117.513 M161.015 119.357 C 160.126 120.108,159.341 120.781,159.270 120.851 C 159.107 121.015,160.828 123.321,163.097 125.978 C 164.796 127.969,167.977 130.899,170.247 132.566 C 172.128 133.946,171.468 133.245,169.319 131.579 C 166.197 129.160,163.198 126.065,163.556 125.634 C 163.716 125.441,163.763 125.148,163.661 124.982 C 163.559 124.817,163.603 124.602,163.759 124.506 C 163.915 124.409,163.975 124.072,163.893 123.757 C 163.810 123.441,163.627 123.254,163.486 123.342 C 163.343 123.430,163.358 123.261,163.519 122.959 C 163.679 122.661,163.789 122.324,163.764 122.211 C 163.740 122.098,163.812 121.793,163.925 121.533 C 164.041 121.267,164.002 120.778,163.836 120.414 C 163.376 119.404,163.487 119.334,164.204 120.182 C 164.568 120.612,164.425 120.290,163.888 119.466 C 162.719 117.676,162.991 117.686,161.015 119.357 M167.188 120.313 C 167.493 120.742,167.802 121.094,167.874 121.094 C 167.946 121.094,167.754 120.742,167.448 120.313 C 167.142 119.883,166.833 119.531,166.761 119.531 C 166.690 119.531,166.882 119.883,167.188 120.313 M168.747 122.266 C 169.825 123.544,172.060 125.788,171.756 125.286 C 171.634 125.085,171.555 124.353,171.579 123.658 C 171.605 122.946,171.509 122.396,171.359 122.396 C 171.213 122.396,171.094 122.548,171.094 122.734 C 171.094 123.775,170.445 123.683,169.167 122.463 C 167.964 121.314,167.933 121.299,168.747 122.266 M168.620 125.521 C 169.615 126.523,170.487 127.344,170.559 127.344 C 170.631 127.344,169.875 126.523,168.880 125.521 C 167.885 124.518,167.013 123.698,166.941 123.698 C 166.869 123.698,167.625 124.518,168.620 125.521 M234.238 126.888 L 232.422 128.776 234.310 126.960 C 236.063 125.273,236.317 125.000,236.126 125.000 C 236.086 125.000,235.237 125.850,234.238 126.888 M174.154 127.925 C 174.906 128.734,175.535 129.520,175.553 129.672 C 175.571 129.824,175.601 130.067,175.618 130.212 C 175.636 130.357,176.003 130.771,176.432 131.132 C 176.921 131.543,176.555 131.396,175.456 130.741 C 174.489 130.165,173.698 129.753,173.698 129.826 C 173.698 130.126,176.953 132.037,177.263 131.918 C 177.447 131.847,177.570 131.909,177.536 132.055 C 177.394 132.664,186.951 137.095,187.412 136.633 C 187.468 136.577,186.603 136.210,185.489 135.817 C 182.343 134.708,179.587 133.181,178.842 132.134 C 178.484 131.630,176.975 130.146,175.488 128.836 C 173.353 126.953,173.073 126.762,174.154 127.925 M195.647 127.734 C 195.649 128.451,195.700 128.713,195.760 128.317 C 195.820 127.921,195.818 127.335,195.756 127.015 C 195.694 126.694,195.645 127.018,195.647 127.734 M170.833 127.425 C 170.833 127.470,171.214 127.851,171.680 128.272 L 172.526 129.036 171.761 128.190 C 171.048 127.401,170.833 127.224,170.833 127.425 M228.731 131.593 C 226.911 133.065,226.692 133.347,228.189 132.294 C 229.273 131.530,230.481 130.436,230.184 130.487 C 230.126 130.496,229.472 130.994,228.731 131.593 M224.744 134.413 C 222.621 135.828,222.168 136.193,223.177 135.673 C 224.073 135.211,226.823 133.341,226.823 133.193 C 226.823 133.022,226.880 132.988,224.744 134.413 M174.349 135.316 C 174.986 135.811,179.971 138.345,180.084 138.232 C 180.128 138.187,178.739 137.422,176.997 136.531 C 175.254 135.640,174.063 135.093,174.349 135.316 M220.313 136.979 C 219.238 137.538,218.450 138.001,218.561 138.008 C 218.838 138.026,222.396 136.222,222.396 136.064 C 222.396 135.889,222.482 135.851,220.313 136.979 M188.151 136.979 C 188.438 137.102,188.848 137.203,189.063 137.203 C 189.309 137.203,189.261 137.120,188.932 136.979 C 188.646 136.856,188.236 136.755,188.021 136.755 C 187.775 136.755,187.823 136.838,188.151 136.979 M191.078 137.755 C 191.399 137.891,192.278 138.063,193.031 138.137 C 194.158 138.247,194.239 138.231,193.490 138.045 C 191.905 137.652,190.410 137.473,191.078 137.755 M197.331 138.725 C 197.653 138.788,198.180 138.788,198.503 138.725 C 198.825 138.663,198.561 138.613,197.917 138.613 C 197.272 138.613,197.008 138.663,197.331 138.725 M202.933 138.729 C 203.329 138.788,203.915 138.787,204.235 138.725 C 204.556 138.663,204.232 138.614,203.516 138.616 C 202.799 138.618,202.537 138.669,202.933 138.729 M182.971 139.442 C 183.417 139.647,184.120 139.882,184.534 139.964 C 185.178 140.091,185.155 140.060,184.375 139.755 C 182.968 139.203,181.975 138.982,182.971 139.442 M213.542 139.714 C 212.611 140.049,211.973 140.333,212.124 140.344 C 212.472 140.370,215.625 139.312,215.625 139.169 C 215.625 138.993,215.313 139.075,213.542 139.714 M207.943 141.146 C 207.241 141.324,207.228 141.345,207.813 141.349 C 208.171 141.352,208.757 141.261,209.115 141.146 C 209.990 140.866,209.044 140.866,207.943 141.146 M192.513 141.846 C 192.764 141.912,193.174 141.912,193.424 141.846 C 193.675 141.781,193.470 141.727,192.969 141.727 C 192.467 141.727,192.262 141.781,192.513 141.846 M194.992 142.116 C 195.460 142.174,196.163 142.173,196.554 142.113 C 196.945 142.054,196.563 142.006,195.703 142.008 C 194.844 142.009,194.524 142.058,194.992 142.116 M201.367 142.114 C 201.761 142.173,202.406 142.173,202.799 142.114 C 203.193 142.054,202.871 142.005,202.083 142.005 C 201.296 142.005,200.973 142.054,201.367 142.114 M207.939 166.667 L 207.943 180.859 214.714 180.866 L 221.484 180.872 214.781 180.796 L 208.077 180.721 208.007 166.597 L 207.936 152.474 207.939 166.667 M221.032 152.788 C 221.356 152.851,221.824 152.848,222.073 152.783 C 222.322 152.718,222.057 152.667,221.484 152.670 C 220.911 152.673,220.708 152.726,221.032 152.788 M177.670 153.776 C 177.673 154.349,177.726 154.553,177.788 154.229 C 177.851 153.905,177.848 153.436,177.783 153.187 C 177.718 152.938,177.667 153.203,177.670 153.776 M230.729 156.331 C 230.729 156.376,231.110 156.757,231.576 157.178 L 232.422 157.943 231.657 157.096 C 230.944 156.307,230.729 156.130,230.729 156.331 M213.927 166.732 L 213.932 175.651 217.253 175.663 L 220.574 175.675 217.322 175.590 L 214.069 175.505 213.996 166.659 L 213.922 157.812 213.927 166.732 M248.506 159.562 C 248.902 159.622,249.488 159.620,249.808 159.558 C 250.129 159.497,249.805 159.448,249.089 159.449 C 248.372 159.451,248.110 159.502,248.506 159.562 M171.200 159.995 C 171.120 160.203,171.105 160.705,171.166 161.111 C 171.259 161.732,171.282 161.694,171.315 160.872 L 171.354 159.896 174.076 159.896 L 176.797 159.896 176.896 161.329 L 176.996 162.763 176.975 161.264 L 176.953 159.766 174.149 159.692 C 171.891 159.632,171.316 159.691,171.200 159.995 M181.893 159.953 C 181.823 160.137,181.795 164.916,181.833 170.573 L 181.901 180.859 184.831 180.873 L 187.761 180.886 184.896 180.799 L 182.031 180.712 182.031 170.304 L 182.031 159.896 184.749 159.896 L 187.467 159.896 187.573 160.612 C 187.673 161.288,187.677 161.284,187.654 160.547 L 187.630 159.766 184.826 159.692 C 182.726 159.636,181.989 159.702,181.893 159.953 M261.198 159.808 C 264.039 159.998,266.869 160.010,266.758 159.831 C 266.691 159.723,265.149 159.657,263.331 159.682 C 261.513 159.708,260.553 159.765,261.198 159.808 M278.067 159.826 C 278.679 159.881,279.617 159.881,280.150 159.825 C 280.683 159.769,280.182 159.724,279.036 159.725 C 277.891 159.726,277.454 159.771,278.067 159.826 M164.312 162.826 C 164.951 163.506,165.507 164.063,165.549 164.063 C 165.745 164.063,165.538 163.829,164.388 162.750 L 163.151 161.589 164.312 162.826 M240.611 162.695 L 239.714 163.672 240.690 162.774 C 241.227 162.281,241.667 161.841,241.667 161.798 C 241.667 161.599,241.446 161.786,240.611 162.695 M152.979 164.988 C 152.482 165.387,152.482 165.389,152.995 165.154 C 153.281 165.022,153.691 164.849,153.906 164.769 C 154.244 164.644,154.242 164.622,153.891 164.604 C 153.668 164.593,153.257 164.766,152.979 164.988 M251.823 164.665 C 251.823 164.710,252.204 165.090,252.669 165.511 L 253.516 166.276 252.751 165.430 C 252.038 164.641,251.823 164.464,251.823 164.665 M117.522 167.057 C 117.524 167.773,117.575 168.035,117.635 167.640 C 117.695 167.244,117.693 166.658,117.631 166.338 C 117.569 166.017,117.520 166.341,117.522 167.057 M197.196 174.674 L 197.135 180.990 200.195 180.934 L 203.255 180.878 200.330 180.795 L 197.405 180.712 197.330 174.536 L 197.256 168.359 197.196 174.674 M144.088 170.052 C 144.088 170.840,144.137 171.162,144.197 170.768 C 144.257 170.374,144.257 169.730,144.197 169.336 C 144.137 168.942,144.088 169.264,144.088 170.052 M161.784 170.182 C 161.787 170.755,161.841 170.959,161.903 170.635 C 161.965 170.311,161.963 169.842,161.898 169.593 C 161.832 169.344,161.782 169.609,161.784 170.182 M149.800 170.313 C 149.800 170.814,149.854 171.019,149.919 170.768 C 149.985 170.518,149.985 170.107,149.919 169.857 C 149.854 169.606,149.800 169.811,149.800 170.313 M187.835 171.484 C 187.837 172.201,187.887 172.463,187.947 172.067 C 188.007 171.671,188.006 171.085,187.944 170.765 C 187.882 170.444,187.833 170.768,187.835 171.484 M246.423 172.322 C 246.819 172.382,247.405 172.381,247.725 172.319 C 248.045 172.257,247.721 172.208,247.005 172.210 C 246.289 172.212,246.027 172.262,246.423 172.322 M250.846 172.322 C 251.240 172.382,251.885 172.382,252.279 172.322 C 252.673 172.262,252.350 172.213,251.563 172.213 C 250.775 172.213,250.452 172.262,250.846 172.322 M171.196 176.432 C 171.197 178.438,171.238 179.223,171.287 178.179 C 171.337 177.134,171.337 175.493,171.287 174.533 C 171.237 173.572,171.196 174.427,171.196 176.432 M159.882 174.674 L 158.984 175.651 159.961 174.754 C 160.870 173.918,161.057 173.698,160.858 173.698 C 160.815 173.698,160.375 174.137,159.882 174.674 M121.604 176.888 C 122.683 178.038,122.917 178.245,122.917 178.049 C 122.917 178.007,122.360 177.451,121.680 176.812 L 120.443 175.651 121.604 176.888 M132.357 175.968 C 132.751 176.027,133.395 176.027,133.789 175.968 C 134.183 175.908,133.861 175.859,133.073 175.859 C 132.285 175.859,131.963 175.908,132.357 175.968 M142.920 176.641 C 143.456 177.211,143.461 177.263,143.030 177.739 C 142.585 178.230,142.588 178.230,143.168 177.747 L 143.758 177.256 143.188 176.649 C 142.874 176.315,142.559 176.042,142.487 176.042 C 142.416 176.042,142.610 176.311,142.920 176.641 M240.625 177.995 C 241.111 178.496,241.567 178.906,241.639 178.906 C 241.710 178.906,241.371 178.496,240.885 177.995 C 240.400 177.493,239.943 177.083,239.872 177.083 C 239.800 177.083,240.139 177.493,240.625 177.995 M176.823 180.330 C 176.823 180.638,176.257 180.728,173.893 180.795 L 170.964 180.878 174.023 180.934 C 176.928 180.987,177.083 180.963,177.083 180.469 C 177.083 180.182,177.025 179.948,176.953 179.948 C 176.882 179.948,176.823 180.120,176.823 180.330 M278.646 180.729 L 275.391 180.884 278.565 180.937 C 280.460 180.968,281.805 180.885,281.901 180.729 C 281.990 180.586,282.026 180.493,281.982 180.522 C 281.937 180.551,280.436 180.644,278.646 180.729 M262.690 180.917 C 263.152 180.975,263.972 180.976,264.512 180.919 C 265.053 180.863,264.674 180.816,263.672 180.815 C 262.669 180.813,262.227 180.860,262.690 180.917 M154.629 181.181 C 155.242 181.236,156.179 181.235,156.713 181.179 C 157.246 181.123,156.745 181.078,155.599 181.079 C 154.453 181.080,154.017 181.126,154.629 181.181 " stroke="none" fill="#59696b" fill-rule="evenodd"></path></g></svg>